<?xml version="1.0" encoding="UTF-8" standalone="no"?>
<svg width="232px" height="30px" viewBox="0 0 232 30" version="1.1" xmlns="http://www.w3.org/2000/svg" xmlns:xlink="http://www.w3.org/1999/xlink" xmlns:sketch="http://www.bohemiancoding.com/sketch/ns">
    <!-- Generator: Sketch 3.3.3 (12081) - http://www.bohemiancoding.com/sketch -->
    <title>Artboard 1</title>
    <desc>Created with Sketch.</desc>
    <defs></defs>
    <g id="Page-1" stroke="none" stroke-width="1" fill="none" fill-rule="evenodd" sketch:type="MSPage">
        <g id="Artboard-1" sketch:type="MSArtboardGroup" fill="#007EE5">
            <g id="Imported-Layers" sketch:type="MSLayerGroup" transform="translate(24.000000, 0.000000)">
                <path d="M132.5712,6.642 L137.9868,6.642 C142.584,6.642 146.2728,9.0552 146.2728,15.1776 C146.2728,21.3456 142.6764,24.054 138.1008,24.054 L132.5712,24.054 L132.5712,6.642 L132.5712,6.642 Z M137.9412,22.6428 C141.72,22.6428 144.5868,20.8452 144.5868,15.246 C144.5868,10.0116 141.6972,8.0532 138.0108,8.0532 L134.1864,8.0532 L134.1864,22.6428 L137.9412,22.6428 L137.9412,22.6428 Z" id="Fill-1" sketch:type="MSShapeGroup"></path>
                <path d="M154.3092,24.3492 C150.6672,24.3492 149.0052,21.9144 149.0052,18.1812 C149.0052,14.5632 150.8496,11.8308 154.2396,11.8308 C157.7688,11.8308 159.0204,14.6544 159.0204,17.4768 L159.0204,18.4548 L150.5988,18.4548 C150.69,21.3456 151.8276,23.0976 154.3308,23.0976 C156.426,23.0976 157.1304,21.732 157.3356,21.0732 L158.838,21.0732 C158.406,22.8924 156.6528,24.3492 154.3092,24.3492 L154.3092,24.3492 Z M157.4268,17.1348 C157.404,15.2688 156.7668,13.0608 154.2396,13.0608 C152.01,13.0608 150.8268,14.79 150.6216,17.2488 L157.4268,17.2488 L157.4268,17.1348 L157.4268,17.1348 Z" id="Fill-2" sketch:type="MSShapeGroup"></path>
                <path d="M168.7632,14.9952 C168.5796,13.8348 167.6016,13.0608 165.9852,13.0608 C164.3472,13.0608 163.3224,13.9944 163.3224,15.2004 C163.3224,16.3608 163.9824,16.908 165.1884,17.0664 L167.328,17.3628 C169.6044,17.6808 170.538,18.8412 170.538,20.6628 C170.538,22.9164 168.6936,24.3492 165.9852,24.3492 C163.5732,24.3492 161.616,23.3712 161.2968,20.7084 L162.8448,20.7084 C163.0956,22.1196 163.9824,23.0976 166.0092,23.0976 C167.8524,23.0976 168.99,22.1424 168.99,20.7996 C168.99,19.7292 168.6492,19.0464 166.9188,18.7968 L164.9616,18.5232 C162.9588,18.2496 161.8212,17.2944 161.8212,15.336 C161.8212,13.2432 163.5276,11.8308 166.0308,11.8308 C168.5124,11.8308 170.082,12.9924 170.2872,14.9952 L168.7632,14.9952" id="Fill-3" sketch:type="MSShapeGroup"></path>
                <path d="M173.8848,7.3716 L175.5924,7.3716 L175.5924,9.1692 L173.8848,9.1692 L173.8848,7.3716 Z M173.9304,12.1272 L175.5228,12.1272 L175.5228,24.054 L173.9304,24.054 L173.9304,12.1272 Z" id="Fill-4" sketch:type="MSShapeGroup"></path>
                <path d="M179.418,25.3284 L180.9648,25.3284 C181.1928,26.3976 182.1936,27.3312 184.1964,27.3312 C186.2004,27.3312 187.7928,26.4216 187.7928,23.5536 L187.7928,21.6648 L187.7712,21.6648 C187.0872,23.0292 185.6304,23.9856 183.7872,23.9856 C181.512,23.9856 178.962,22.4832 178.962,17.9316 C178.962,13.9488 181.1016,11.8308 184.1064,11.8308 C186.0852,11.8308 187.3152,12.9924 187.8156,14.1528 L187.8612,14.1528 L187.8612,12.1272 L189.3408,12.1272 L189.3408,23.5764 C189.3408,27.0132 187.1556,28.5828 184.152,28.5828 C181.626,28.5828 179.7132,27.3768 179.418,25.3284 L179.418,25.3284 Z M187.8156,17.1576 C187.8156,15.0636 186.5868,13.1064 184.128,13.1064 C181.7388,13.1064 180.6012,15.1092 180.6012,17.9316 C180.6012,20.6856 181.5336,22.734 184.2204,22.734 C186.4956,22.734 187.8156,20.868 187.8156,18.8196 L187.8156,17.1576 L187.8156,17.1576 Z" id="Fill-5" sketch:type="MSShapeGroup"></path>
                <path d="M201.4284,16.5204 C201.4284,15.5196 201.3372,14.6088 200.9052,14.0172 C200.4948,13.4472 199.8348,13.1748 198.9024,13.1748 C196.4676,13.1748 195.3732,14.9736 195.3732,17.022 L195.3732,24.054 L193.7808,24.054 L193.7808,12.1272 L195.2604,12.1272 L195.2604,14.244 L195.306,14.244 C195.9432,12.9012 197.286,11.8308 199.2672,11.8308 C201.8376,11.8308 202.9992,13.2204 202.9992,15.9516 L202.9992,24.054 L201.4284,24.054 L201.4284,16.5204" id="Fill-6" sketch:type="MSShapeGroup"></path>
                <path d="M36.768,6.6672 L42.9072,6.6672 C48.168,6.6672 51.48,10.062 51.48,15.3528 C51.48,20.6424 48.168,24.0372 42.9072,24.0372 L36.768,24.0372 L36.768,6.6672 L36.768,6.6672 Z M42.7668,20.8404 C46.0752,20.8404 47.886,18.7188 47.886,15.3528 C47.886,11.958 46.0752,9.8352 42.7668,9.8352 L40.3608,9.8352 L40.3608,20.8404 L42.7668,20.8404 L42.7668,20.8404 Z" id="Fill-7" sketch:type="MSShapeGroup"></path>
                <path d="M60.792,14.844 C60.3096,14.5608 59.6868,14.4192 59.0364,14.4192 C57.8484,14.4192 56.886,15.0408 56.6328,16.2012 L56.6328,24.0372 L53.124,24.0372 L53.124,11.3928 L56.6328,11.3928 L56.6328,12.6372 C57.1704,11.7312 58.2168,11.1084 59.4612,11.1084 C60.054,11.1084 60.5916,11.2224 60.792,11.3352 L60.792,14.844" id="Fill-8" sketch:type="MSShapeGroup"></path>
                <path d="M67.7892,24.3204 C64.11,24.3204 61.5924,21.6048 61.5924,17.7288 C61.5924,13.824 64.11,11.1084 67.7892,11.1084 C71.4648,11.1084 73.9836,13.824 73.9836,17.7288 C73.9836,21.6048 71.4648,24.3204 67.7892,24.3204 L67.7892,24.3204 Z M67.7892,14.0796 C66.0336,14.0796 65.0736,15.6072 65.0736,17.7288 C65.0736,19.8228 66.0336,21.3504 67.7892,21.3504 C69.5424,21.3504 70.5048,19.8228 70.5048,17.7288 C70.5048,15.6072 69.5424,14.0796 67.7892,14.0796 L67.7892,14.0796 Z" id="Fill-9" sketch:type="MSShapeGroup"></path>
                <path d="M78.9972,28.7052 L75.4884,28.7052 L75.4884,11.3928 L78.9972,11.3928 L78.9972,12.4392 C79.5612,11.76 80.8068,11.1084 82.1652,11.1084 C85.842,11.1084 87.9348,14.1648 87.9348,17.7288 C87.9348,21.2928 85.842,24.3204 82.1652,24.3204 C80.8068,24.3204 79.5612,23.67 78.9972,22.9908 L78.9972,28.7052 L78.9972,28.7052 Z M78.9972,19.794 C79.4196,20.6712 80.3544,21.2652 81.372,21.2652 C83.268,21.2652 84.3984,19.7376 84.3984,17.7288 C84.3984,15.6924 83.268,14.1648 81.372,14.1648 C80.3244,14.1648 79.4196,14.7876 78.9972,15.6348 L78.9972,19.794 L78.9972,19.794 Z" id="Fill-10" sketch:type="MSShapeGroup"></path>
                <path d="M92.9748,24.0372 L89.4396,24.0372 L89.4396,5.6496 L92.9748,5.6496 L92.9748,12.4392 C93.5412,11.76 94.7856,11.1084 96.144,11.1084 C99.8208,11.1084 101.886,14.1084 101.886,17.7288 C101.886,21.3504 99.8208,24.3204 96.144,24.3204 C94.7856,24.3204 93.5412,23.67 92.9748,22.9908 L92.9748,24.0372 L92.9748,24.0372 Z M92.9748,19.794 C93.3708,20.6712 94.3032,21.2652 95.3508,21.2652 C97.2468,21.2652 98.3772,19.7376 98.3772,17.7288 C98.3772,15.6924 97.2468,14.1648 95.3508,14.1648 C94.3332,14.1648 93.3708,14.7876 92.9748,15.6348 L92.9748,19.794 L92.9748,19.794 Z" id="Fill-11" sketch:type="MSShapeGroup"></path>
                <path d="M109.3416,24.36 C105.6636,24.36 103.146,21.6432 103.146,17.7684 C103.146,13.8636 105.6636,11.148 109.3416,11.148 C113.0184,11.148 115.5372,13.8636 115.5372,17.7684 C115.5372,21.6432 113.0184,24.36 109.3416,24.36 L109.3416,24.36 Z M109.3416,14.1192 C107.5872,14.1192 106.626,15.6468 106.626,17.7684 C106.626,19.8612 107.5872,21.39 109.3416,21.39 C111.096,21.39 112.0584,19.8612 112.0584,17.7684 C112.0584,15.6468 111.096,14.1192 109.3416,14.1192 L109.3416,14.1192 Z" id="Fill-12" sketch:type="MSShapeGroup"></path>
                <path d="M123.4272,17.5428 L128.0388,24.0768 L124.1628,24.0768 L121.446,20.1156 L118.7004,24.0768 L115.0248,24.0768 L119.5788,17.6268 L115.2792,11.4312 L119.1528,11.4312 L121.5864,15.024 L124.0776,11.4312 L127.7532,11.4312 L123.4272,17.5428" id="Fill-13" sketch:type="MSShapeGroup"></path>
                <path d="M10.3212,0.9168 L1.1904,6.8784 L7.5036,11.9352 L16.71,6.2496 L10.3212,0.9168" id="Fill-14" sketch:type="MSShapeGroup"></path>
                <path d="M1.1904,16.9908 L10.3212,22.9524 L16.71,17.6196 L7.5036,11.9352 L1.1904,16.9908" id="Fill-15" sketch:type="MSShapeGroup"></path>
                <path d="M16.71,17.6196 L23.1,22.9524 L32.2296,16.9908 L25.9164,11.9352 L16.71,17.6196" id="Fill-16" sketch:type="MSShapeGroup"></path>
                <path d="M32.2296,6.8784 L23.1,0.9168 L16.71,6.2496 L25.9164,11.9352 L32.2296,6.8784" id="Fill-17" sketch:type="MSShapeGroup"></path>
                <path d="M16.7292,18.7668 L10.3212,24.084 L7.5792,22.2936 L7.5792,24.3 L16.7292,29.7876 L25.8792,24.3 L25.8792,22.2936 L23.1372,24.084 L16.7292,18.7668" id="Fill-18" sketch:type="MSShapeGroup"></path>
            </g>
        </g>
    </g>
</svg>
